<svg width="134" height="96" viewBox="0 0 134 96" fill="none" xmlns="http://www.w3.org/2000/svg">
<g clip-path="url(#clip0)">
<path d="M71.64 12.0644C57.8327 16.4727 14.0985 -5.26475 17.5211 24.4272C18.0559 28.8422 20.8997 35.0782 18.4979 39.2001C16.758 42.2869 13.5682 44.0956 10.4871 45.2957C2.4388 48.5677 -0.5577 54.7085 1.4803 63.4729C6.93213 87.0897 36.6103 81.489 52.1903 74.4863C63.2704 69.2751 76.338 68.3801 87.8114 72.7884C96.7998 76.3779 102.403 83.908 112.952 81.702C122.308 79.8245 123.72 70.9917 120.988 62.7692C119.436 57.6821 118.322 55.5326 121.4 50.6223C123.994 45.7455 128.561 42.0502 128.912 36.3369C128.989 30.1488 126.145 23.9132 120.642 21.5693C116.14 19.652 112.059 20.4259 107.605 19.247C97.698 16.4628 91.3314 1.07008 79.0413 6.36387C75.9771 7.81026 74.2527 11.1437 70.9137 12.1145" fill="#3498DB"/>
<path d="M66.6335 9.94397C67.8848 9.94397 67.8848 8.00369 66.6335 8.00369C65.3822 8.00369 65.3822 9.94397 66.6335 9.94397Z" fill="#3498DB"/>
<path d="M9.15283 39.7757C11.6554 39.7757 11.6554 35.8951 9.15283 35.8951C6.65023 35.8951 6.65023 39.7757 9.15283 39.7757Z" fill="#3498DB"/>
<path d="M125.812 55.2493C128.315 55.2493 128.315 51.3688 125.812 51.3688C123.309 51.3688 123.309 55.2493 125.812 55.2493Z" fill="#3498DB"/>
<path d="M60.0851 8.97382C62.5877 8.97382 62.5877 5.09326 60.0851 5.09326C57.5825 5.09326 57.5825 8.97382 60.0851 8.97382Z" fill="#3498DB"/>
<path d="M129.693 49.089C132.946 49.089 132.946 44.0443 129.693 44.0443C126.439 44.0443 126.439 49.089 129.693 49.089Z" fill="#3498DB"/>
<path d="M2.60454 46.1786C5.85785 46.1786 5.85785 41.1339 2.60454 41.1339C-0.648778 41.1339 -0.648778 46.1786 2.60454 46.1786Z" fill="#3498DB"/>
<path d="M110.29 15.8618C113.543 15.8618 113.543 10.817 110.29 10.817C107.037 10.817 107.037 15.8618 110.29 15.8618Z" fill="#3498DB"/>
<path d="M65.6634 5.82086C69.4173 5.82086 69.4173 2.86102e-05 65.6634 2.86102e-05C61.9099 2.86102e-05 61.9099 5.82086 65.6634 5.82086Z" fill="#3498DB"/>
<path d="M131.779 53.6484C133.655 53.6484 133.655 50.738 131.779 50.738C129.902 50.738 129.902 53.6484 131.779 53.6484Z" fill="#3498DB"/>
<path d="M1.92541 38.0779C3.80218 38.0779 3.80218 35.1675 1.92541 35.1675C0.0486279 35.1675 0.0486279 38.0779 1.92541 38.0779Z" fill="#3498DB"/>
<path d="M116.353 18.6752C118.23 18.6752 118.23 15.7648 116.353 15.7648C114.476 15.7648 114.476 18.6752 116.353 18.6752Z" fill="#3498DB"/>
<path d="M115.868 13.3394C117.119 13.3394 117.119 11.3991 115.868 11.3991C114.617 11.3991 114.617 13.3394 115.868 13.3394Z" fill="#3498DB"/>
<path d="M17.5934 9.99219C20.096 9.99219 20.096 6.11163 17.5934 6.11163C15.0908 6.11163 15.0908 9.99219 17.5934 9.99219Z" fill="#3498DB"/>
<path d="M127.995 76.8837C130.497 76.8837 130.497 73.0031 127.995 73.0031C125.492 73.0031 125.492 76.8837 127.995 76.8837Z" fill="#3498DB"/>
<path d="M1.87695 78.5814C4.37956 78.5814 4.37956 74.7009 1.87695 74.7009C-0.625651 74.7009 -0.625651 78.5814 1.87695 78.5814Z" fill="#3498DB"/>
<path d="M23.4142 7.08179C24.6655 7.08179 24.6655 5.14151 23.4142 5.14151C22.1629 5.14151 22.1629 7.08179 23.4142 7.08179Z" fill="#3498DB"/>
<path d="M128.237 69.1226C129.489 69.1226 129.489 67.1823 128.237 67.1823C126.986 67.1823 126.986 69.1226 128.237 69.1226Z" fill="#3498DB"/>
<path d="M7.69763 81.0068C8.94894 81.0068 8.94894 79.0665 7.69763 79.0665C6.44633 79.0665 6.44633 81.0068 7.69763 81.0068Z" fill="#3498DB"/>
<path d="M35.3957 48.3387C34.0886 48.8005 33.2258 48.8887 32.5562 47.5668C32.0404 46.5487 31.6965 45.4978 31.0473 44.5449C29.6405 42.4794 28.278 42.3411 26.0252 42.6353C23.7893 42.9271 20.7392 42.3559 20.3998 39.7704C20.1582 37.9275 20.144 36.2331 19.3369 34.5091C18.9397 33.66 17.6852 34.399 18.0806 35.2436C18.9756 37.1567 18.5844 39.2391 19.2395 41.1875C19.9038 43.1645 22.1171 43.802 23.9773 44.0242C25.3831 44.1918 26.614 43.8528 27.9923 43.8542C29.4725 43.8559 30.4833 46.3952 30.9525 47.5097C31.9304 49.8338 33.3157 50.6134 35.7827 49.742C36.6611 49.4316 36.2829 48.0254 35.3957 48.3387Z" fill="#1C1C1B"/>
<path d="M20.0173 32.5451C19.5816 33.1159 19.049 33.4722 18.415 33.7915C17.7444 34.1294 18.3342 35.1334 19.0027 34.7969C19.8268 34.3817 20.4615 33.8677 21.0227 33.1328C21.2157 32.8799 21.0623 32.482 20.8139 32.3363C20.5144 32.1613 20.2096 32.2936 20.0173 32.5451Z" fill="#1C1C1B"/>
<path d="M17.9329 30.9959C17.936 32.2267 18.1156 33.4508 18.1269 34.6824C18.1336 35.4327 19.2978 35.4335 19.2911 34.6824C19.2798 33.4508 19.1002 32.2267 19.097 30.9959C19.0949 30.2452 17.9307 30.2452 17.9329 30.9959Z" fill="#1C1C1B"/>
<path d="M15.9691 32.1836C16.748 33.1572 17.539 34.1288 18.6089 34.7969C19.2478 35.1956 19.8317 34.188 19.1967 33.7915C18.2198 33.1816 17.5026 32.2485 16.7921 31.3605C16.3229 30.7742 15.5052 31.6036 15.9691 32.1836Z" fill="#1C1C1B"/>
<path d="M14.999 33.9296C16.082 34.9537 17.4321 35.2931 18.8637 34.8556C19.5795 34.6369 19.274 33.5129 18.5543 33.7327C17.5206 34.0488 16.613 33.8541 15.822 33.1065C15.2773 32.5911 14.4525 33.4131 14.999 33.9296Z" fill="#1C1C1B"/>
<path d="M94.9133 51.9507C94.9655 50.0488 95.6012 49.4145 97.4371 49.265C98.6298 49.1676 99.8399 49.1838 101.02 48.9644C102.82 48.6289 102.786 46.1454 103.483 44.8641C104.547 42.9062 107.405 43.1143 109.25 42.5361C111.282 41.899 112.062 40.1785 112.182 38.1747C112.238 37.237 110.782 37.2423 110.727 38.1747C110.548 41.1557 108.362 41.2594 105.961 41.7536C103.844 42.189 102.411 43.3492 101.675 45.389C101.444 46.0272 101.388 47.3582 100.633 47.5611C99.4021 47.8913 97.9857 47.7403 96.7195 47.8775C94.3404 48.1354 93.5205 49.6929 93.4581 51.9507C93.4323 52.8898 94.8876 52.8869 94.9133 51.9507Z" fill="#1C1C1B"/>
<path d="M108.759 36.3892C109.256 37.5752 110.113 38.4328 111.3 38.9302C111.593 39.053 111.94 38.7997 112.015 38.5235C112.108 38.188 111.901 37.9301 111.609 37.8073C110.844 37.4867 110.202 36.845 109.881 36.0798C109.758 35.7873 109.501 35.5806 109.165 35.673C108.889 35.7492 108.635 36.096 108.759 36.3892Z" fill="#1C1C1B"/>
<path d="M110.484 34.8764V37.7868C110.484 38.5375 111.648 38.5375 111.648 37.7868V34.8764C111.648 34.1257 110.484 34.1257 110.484 34.8764Z" fill="#1C1C1B"/>
<path d="M112.445 35.1097C112.092 36.1275 111.483 36.8934 110.654 37.5693C110.072 38.0441 110.901 38.8626 111.478 38.3923C112.464 37.5873 113.15 36.6235 113.568 35.4191C113.814 34.7079 112.689 34.4049 112.445 35.1097Z" fill="#1C1C1B"/>
<path d="M113.862 36.3289C113.355 37.1329 112.554 37.6465 111.688 38.0018C111.003 38.2826 111.302 39.409 111.997 39.1243C113.157 38.6488 114.186 37.9965 114.867 36.9166C115.269 36.2795 114.261 35.696 113.862 36.3289Z" fill="#1C1C1B"/>
<path d="M101.851 73.0348C101.851 74.0529 94.2294 74.3486 93.4056 74.3486H36.3696C35.5469 74.3486 27.9241 74.0529 27.9241 73.0348L34.8791 62.6095C34.8791 61.5914 35.5469 60.7663 36.3696 60.7663H93.4056C94.2294 60.7663 94.8961 61.5914 94.8961 62.6095L101.851 73.0348Z" fill="#B4B4B4"/>
<path d="M53.158 70.7125H38.4994L41.0644 64.5036H54.3225L53.158 70.7125Z" fill="#3C3C3A"/>
<path d="M76.6168 70.7125H91.2754L88.7097 64.5036H75.4523L76.6168 70.7125Z" fill="#3C3C3A"/>
<path d="M92.9044 70.7125H98.0663L93.8424 64.5036H89.9485L92.9044 70.7125Z" fill="#3C3C3A"/>
<path d="M36.8711 70.7125H31.7089L35.933 64.5036H39.8263L36.8711 70.7125Z" fill="#3C3C3A"/>
<path d="M75.3272 70.7125H54.447L55.6112 64.5036H74.1631L75.3272 70.7125Z" fill="#3C3C3A"/>
<path d="M96.7925 66.5873H32.9828V65.6369H96.7925V66.5873Z" fill="#B4B4B4"/>
<path d="M97.4843 68.9156H32.291V67.9652H97.4843V68.9156Z" fill="#B4B4B4"/>
<path d="M102.241 75.4495C102.241 76.2725 102.071 76.9396 101.248 76.9396H28.527C27.7033 76.9396 27.5336 76.2725 27.5336 75.4495V74.1717C27.5336 73.3487 27.7033 72.6816 28.527 72.6816H101.248C102.071 72.6816 102.241 73.3487 102.241 74.1717V75.4495Z" fill="#3C3C3A"/>
<path d="M78.5177 74.8463C78.5177 75.2749 78.1706 75.6224 77.742 75.6224H52.0333C51.6043 75.6224 51.2572 75.2749 51.2572 74.8463C51.2572 74.4176 51.6043 74.0702 52.0333 74.0702H77.742C78.1706 74.0702 78.5177 74.4176 78.5177 74.8463Z" fill="#707070"/>
<path d="M95.6409 61.2023C95.6409 62.0254 94.9738 62.6932 94.1501 62.6932H35.6246C34.8012 62.6932 34.1338 62.0254 34.1338 61.2023V23.0201C34.1338 22.1971 34.8012 21.5297 35.6246 21.5297H94.1501C94.9738 21.5297 95.6409 22.1971 95.6409 23.0201V61.2023Z" fill="#3C3C3A"/>
<path d="M64.8876 23.6029C65.6888 23.6029 65.6888 22.3608 64.8876 22.3608C64.0865 22.3608 64.0865 23.6029 64.8876 23.6029Z" fill="white"/>
<path d="M91.3356 58.8023C91.3356 59.5103 90.7617 60.0843 90.0543 60.0843H39.7211C39.0138 60.0843 38.4391 59.5103 38.4391 58.8023V25.9668C38.4391 25.2588 39.0138 24.6848 39.7211 24.6848H90.0543C90.7617 24.6848 91.3356 25.2588 91.3356 25.9668V58.8023Z" fill="white"/>
<path d="M57.1874 37.9939L52.7968 42.3839" stroke="#325975" stroke-width="1.16417" stroke-miterlimit="10" stroke-linecap="round" stroke-linejoin="round"/>
<path d="M57.1874 42.3846L52.7971 37.9943" stroke="#325975" stroke-width="1.16417" stroke-miterlimit="10" stroke-linecap="round" stroke-linejoin="round"/>
<path d="M76.9782 37.9939L72.5875 42.3839" stroke="#325975" stroke-width="1.16417" stroke-miterlimit="10" stroke-linecap="round" stroke-linejoin="round"/>
<path d="M76.9781 42.3846L72.5881 37.9943" stroke="#325975" stroke-width="1.16417" stroke-miterlimit="10" stroke-linecap="round" stroke-linejoin="round"/>
<path d="M75.0076 47.6822V52.0154C75.0076 52.873 74.3123 53.5679 73.4554 53.5679H72.6182C71.761 53.5679 71.0657 52.873 71.0657 52.0154V47.6822" fill="#F29BB4"/>
<path d="M73.7173 47.9085L73.0365 52.9532L72.356 47.9085H73.7173Z" fill="#EF82A2"/>
<path d="M51.7311 47.6774H78.0437" stroke="#325975" stroke-width="0.970139" stroke-miterlimit="10" stroke-linecap="round" stroke-linejoin="round"/>
<path d="M47.425 47.0355C49.9277 47.0355 49.9277 43.155 47.425 43.155C44.9224 43.155 44.9224 47.0355 47.425 47.0355Z" fill="#F7C3D2"/>
<path d="M82.3501 47.0355C84.8527 47.0355 84.8527 43.155 82.3501 43.155C79.8475 43.155 79.8475 47.0355 82.3501 47.0355Z" fill="#F7C3D2"/>
<path d="M85.6484 16.4438V29.2496C85.6484 30.5009 87.5887 30.5009 87.5887 29.2496V16.4438C87.5887 15.1925 85.6484 15.1925 85.6484 16.4438Z" fill="#F29101"/>
<path d="M86.6185 34.1974C88.4953 34.1974 88.4953 31.287 86.6185 31.287C84.7417 31.287 84.7417 34.1974 86.6185 34.1974Z" fill="#F29101"/>
<path d="M90.8237 92.8379C90.8237 94.5521 89.4341 95.9424 87.7189 95.9424H42.3167C40.6019 95.9424 39.2119 94.5521 39.2119 92.8379V86.629C39.2119 84.9145 40.6019 83.5246 42.3167 83.5246H87.7189C89.4341 83.5246 90.8237 84.9145 90.8237 86.629V92.8379Z" fill="#3498DB"/>
<path d="M54.012 87.614H55.272V88.634C55.272 88.988 55.314 89.096 55.404 89.168C55.506 89.246 55.656 89.282 55.788 89.282H56.154C56.262 89.282 56.406 89.264 56.49 89.222C56.58 89.18 56.652 89.12 56.694 89.012C56.736 88.91 56.754 88.634 56.76 88.376C56.64 88.334 56.484 88.268 56.394 88.184C56.388 88.448 56.382 88.64 56.364 88.736C56.352 88.82 56.316 88.868 56.28 88.874C56.25 88.892 56.184 88.898 56.118 88.898H55.89C55.824 88.898 55.782 88.892 55.752 88.874C55.716 88.856 55.71 88.784 55.71 88.658V87.194H53.58V87.884C53.58 88.328 53.466 88.85 52.764 89.228C52.854 89.288 53.016 89.456 53.07 89.552C53.844 89.114 54.012 88.448 54.012 87.89V87.614ZM52.914 87.686C52.674 87.464 52.2 87.194 51.816 87.032L51.57 87.35C51.954 87.53 52.422 87.824 52.65 88.04L52.914 87.686ZM52.602 89.24C52.362 89.042 51.876 88.784 51.492 88.634L51.252 88.958C51.642 89.132 52.116 89.408 52.356 89.612L52.602 89.24ZM52.512 90.164C52.182 90.842 51.75 91.622 51.444 92.084L51.822 92.372C52.152 91.82 52.548 91.076 52.842 90.446L52.512 90.164ZM55.662 90.032C55.446 90.464 55.134 90.824 54.756 91.124C54.396 90.812 54.108 90.446 53.91 90.032H55.662ZM55.986 89.594L55.902 89.612H53.052V90.032H53.784L53.502 90.128C53.724 90.608 54.024 91.028 54.396 91.376C53.862 91.712 53.238 91.94 52.596 92.066C52.674 92.156 52.782 92.348 52.824 92.468C53.514 92.306 54.174 92.054 54.744 91.67C55.236 92.042 55.83 92.312 56.508 92.468C56.574 92.348 56.706 92.162 56.802 92.072C56.16 91.946 55.59 91.712 55.116 91.394C55.626 90.974 56.034 90.422 56.28 89.726L55.986 89.594ZM61.482 89.876H58.98V89.27H61.482V89.876ZM58.98 90.89V90.26H61.482V90.89H58.98ZM62.622 88.172V87.752H59.568C59.658 87.536 59.73 87.308 59.802 87.086L59.358 86.978C59.286 87.236 59.196 87.494 59.094 87.752H57.402V88.172H58.908C58.524 88.964 57.978 89.684 57.258 90.17C57.348 90.254 57.486 90.416 57.546 90.512C57.924 90.248 58.254 89.924 58.542 89.57V92.456H58.98V91.274H61.482V91.898C61.482 91.988 61.446 92.018 61.344 92.024C61.236 92.024 60.876 92.03 60.48 92.012C60.54 92.138 60.606 92.318 60.624 92.45C61.134 92.45 61.47 92.444 61.668 92.372C61.86 92.3 61.92 92.168 61.92 91.898V88.868H59.028C59.16 88.646 59.28 88.406 59.394 88.172H62.622ZM64.38 90.14V89.534H65.808V89.774C65.808 89.894 65.808 90.02 65.796 90.14H64.38ZM64.38 88.58H65.808V89.18H64.38V88.58ZM67.776 88.58V89.18H66.264V88.58H67.776ZM67.776 90.14H66.252C66.258 90.026 66.264 89.9 66.264 89.78V89.534H67.776V90.14ZM68.214 90.512V88.208H66.264V87.704H68.592V87.302H63.408V87.704H65.808V88.208H63.954V90.512H65.736C65.664 90.8 65.526 91.07 65.25 91.304C64.968 91.118 64.728 90.872 64.524 90.56L64.152 90.71C64.356 91.058 64.602 91.334 64.89 91.556C64.524 91.766 64.014 91.934 63.3 92.072C63.396 92.174 63.516 92.36 63.564 92.462C64.344 92.3 64.902 92.078 65.304 91.814C66.12 92.246 67.212 92.378 68.598 92.438C68.622 92.294 68.706 92.108 68.784 92C67.452 91.964 66.42 91.874 65.664 91.532C65.964 91.226 66.126 90.884 66.198 90.512H68.214ZM73.08 87.86C72.816 88.208 72.456 88.52 72.048 88.79C71.802 88.574 71.376 88.316 70.986 88.118C71.118 88.034 71.244 87.95 71.364 87.86H73.08ZM73.44 87.458L73.362 87.482H71.826C71.97 87.35 72.102 87.218 72.222 87.08L71.724 86.972C71.31 87.47 70.53 88.034 69.456 88.412C69.552 88.484 69.696 88.634 69.762 88.742C70.068 88.616 70.35 88.484 70.614 88.34C70.986 88.532 71.406 88.796 71.664 89.018C70.968 89.402 70.158 89.678 69.408 89.816C69.492 89.912 69.582 90.086 69.624 90.206C71.196 89.864 72.954 89.024 73.722 87.638L73.44 87.458ZM73.986 89.948C73.722 90.404 73.338 90.776 72.882 91.076C72.612 90.83 72.15 90.518 71.736 90.29C71.922 90.176 72.102 90.068 72.264 89.948H73.986ZM74.316 89.546L74.232 89.564H72.744C72.906 89.42 73.05 89.27 73.182 89.12L72.69 89.006C72.222 89.576 71.316 90.194 70.062 90.59C70.152 90.668 70.278 90.83 70.332 90.926C70.692 90.8 71.028 90.656 71.334 90.506C71.748 90.728 72.204 91.052 72.486 91.31C71.718 91.712 70.794 91.952 69.858 92.066C69.93 92.162 70.02 92.354 70.056 92.468C71.994 92.186 73.854 91.442 74.604 89.708L74.316 89.546ZM79.968 87.416L79.872 87.446H75.606V87.884H79.47C79.092 88.274 78.57 88.712 78.072 89.012H77.778V91.874C77.778 91.982 77.736 92.018 77.604 92.024C77.472 92.03 77.004 92.03 76.512 92.012C76.584 92.138 76.674 92.33 76.692 92.456C77.304 92.456 77.7 92.456 77.928 92.39C78.156 92.318 78.24 92.18 78.24 91.88V89.402C78.972 88.982 79.794 88.292 80.316 87.668L79.968 87.416Z" fill="white"/>
</g>
<defs>
<clipPath id="clip0">
<rect width="133.186" height="95.9424" fill="white"/>
</clipPath>
</defs>
</svg>
